<svg xmlns="http://www.w3.org/2000/svg" xmlns:xlink="http://www.w3.org/1999/xlink" width="1366" zoomAndPan="magnify" viewBox="0 0 1024.5 576" height="768" preserveAspectRatio="xMidYMid meet" version="1.0"><defs><g/></defs><g fill="#edece7" fill-opacity="1"><g transform="translate(272.852075, 202.165782)"><g><path d="M -0.660156 0 L 7.261719 0 C 8.582031 0 9.40625 -0.496094 10.234375 -1.816406 C 13.203125 -6.273438 21.289062 -20.628906 28.882812 -35.484375 C 38.289062 -52.484375 49.183594 -67.339844 58.425781 -73.28125 C 67.832031 -70.472656 73.941406 -69.484375 79.222656 -69.484375 C 85.328125 -69.484375 91.105469 -76.414062 91.105469 -80.375 C 91.105469 -83.015625 85.328125 -83.84375 81.367188 -83.84375 C 62.882812 -83.84375 49.183594 -70.640625 37.796875 -53.640625 C 42.085938 -63.210938 45.058594 -71.300781 45.058594 -75.261719 C 45.058594 -79.054688 42.910156 -83.84375 36.640625 -83.84375 C 31.027344 -83.84375 21.125 -77.902344 9.078125 -67.007812 L 10.398438 -65.355469 C 17.824219 -72.125 23.105469 -74.929688 26.570312 -74.929688 C 29.378906 -74.929688 30.863281 -73.28125 30.863281 -70.640625 C 30.863281 -61.5625 8.253906 -20.960938 -2.144531 -3.136719 C -3.136719 -1.320312 -2.476562 0 -0.660156 0 Z M -0.660156 0 "/></g></g></g><g fill="#edece7" fill-opacity="1"><g transform="translate(350.09019, 202.165782)"><g><path d="M 21.457031 1.15625 C 29.707031 1.15625 44.066406 -5.117188 58.589844 -18.484375 L 57.269531 -19.96875 C 45.882812 -9.738281 37.628906 -7.921875 31.851562 -7.921875 C 22.28125 -7.921875 17.496094 -13.367188 16.503906 -21.125 C 65.851562 -52.152344 78.394531 -63.542969 78.394531 -74.269531 C 78.394531 -80.046875 74.105469 -83.84375 65.523438 -83.84375 C 39.445312 -83.84375 1.980469 -47.367188 1.980469 -18.15625 C 1.980469 -8.582031 7.921875 1.320312 21.457031 1.15625 Z M 16.339844 -23.4375 L 16.339844 -23.601562 C 15.84375 -45.386719 33.667969 -77.570312 54.792969 -77.570312 C 60.242188 -77.570312 64.367188 -74.433594 64.367188 -68.988281 C 64.367188 -56.941406 51.164062 -45.222656 16.339844 -23.4375 Z M 16.339844 -23.4375 "/></g></g></g><g fill="#edece7" fill-opacity="1"><g transform="translate(422.377141, 202.165782)"><g><path d="M 28.386719 1.320312 C 47.699219 1.15625 67.171875 -22.28125 78.5625 -45.882812 C 84.007812 -56.941406 89.949219 -73.941406 89.949219 -80.542969 C 89.949219 -82.523438 88.957031 -83.84375 86.484375 -83.84375 C 81.203125 -83.84375 75.261719 -80.046875 74.601562 -74.433594 C 73.773438 -69.152344 74.269531 -59.582031 76.085938 -45.550781 C 66.84375 -27.066406 51 -5.777344 37.960938 -5.941406 C 29.046875 -5.941406 24.097656 -12.542969 24.097656 -23.601562 C 24.097656 -39.28125 34.328125 -63.210938 57.269531 -81.035156 L 56.941406 -82.523438 C 47.699219 -82.523438 36.308594 -83.015625 31.359375 -83.015625 C 28.222656 -83.015625 25.085938 -82.355469 22.777344 -80.542969 C 17.988281 -76.582031 13.203125 -72.621094 8.085938 -65.851562 L 9.574219 -64.695312 C 13.863281 -69.980469 18.320312 -72.453125 25.085938 -72.621094 C 30.863281 -72.949219 40.4375 -72.289062 44.890625 -72.125 C 27.066406 -57.929688 10.398438 -35.648438 10.398438 -18.15625 C 10.398438 -5.777344 17.988281 1.320312 28.386719 1.320312 Z M 28.386719 1.320312 "/></g></g></g><g fill="#edece7" fill-opacity="1"><g transform="translate(508.527349, 202.165782)"><g><path d="M 10.726562 1.320312 C 16.175781 1.320312 25.746094 -4.621094 37.796875 -15.515625 L 36.476562 -17.164062 C 29.707031 -10.894531 25.582031 -9.40625 22.28125 -9.40625 C 19.144531 -9.40625 17.328125 -11.058594 17.328125 -14.523438 C 17.328125 -26.242188 47.367188 -60.570312 47.367188 -75.261719 C 47.367188 -79.054688 45.222656 -83.84375 39.117188 -83.84375 C 33.339844 -83.84375 23.4375 -77.902344 11.386719 -67.007812 L 12.707031 -65.355469 C 20.136719 -72.125 25.582031 -74.929688 28.882812 -74.929688 C 31.851562 -74.929688 33.007812 -73.28125 33.007812 -70.804688 C 33.007812 -61.394531 1.652344 -24.425781 1.652344 -8.582031 C 1.652344 -4.292969 4.125 1.320312 10.726562 1.320312 Z M 44.890625 -95.394531 L 45.882812 -94.074219 L 77.242188 -118.5 C 80.046875 -120.648438 80.707031 -121.472656 80.707031 -124.277344 C 80.707031 -125.433594 80.375 -126.421875 79.550781 -126.421875 C 78.5625 -126.421875 77.074219 -124.9375 74.765625 -122.792969 Z M 44.890625 -95.394531 "/></g></g></g><g fill="#edece7" fill-opacity="1"><g transform="translate(556.553617, 202.165782)"><g><path d="M 28.386719 1.320312 C 47.699219 1.15625 67.171875 -22.28125 78.5625 -45.882812 C 84.007812 -56.941406 89.949219 -73.941406 89.949219 -80.542969 C 89.949219 -82.523438 88.957031 -83.84375 86.484375 -83.84375 C 81.203125 -83.84375 75.261719 -80.046875 74.601562 -74.433594 C 73.773438 -69.152344 74.269531 -59.582031 76.085938 -45.550781 C 66.84375 -27.066406 51 -5.777344 37.960938 -5.941406 C 29.046875 -5.941406 24.097656 -12.542969 24.097656 -23.601562 C 24.097656 -39.28125 34.328125 -63.210938 57.269531 -81.035156 L 56.941406 -82.523438 C 47.699219 -82.523438 36.308594 -83.015625 31.359375 -83.015625 C 28.222656 -83.015625 25.085938 -82.355469 22.777344 -80.542969 C 17.988281 -76.582031 13.203125 -72.621094 8.085938 -65.851562 L 9.574219 -64.695312 C 13.863281 -69.980469 18.320312 -72.453125 25.085938 -72.621094 C 30.863281 -72.949219 40.4375 -72.289062 44.890625 -72.125 C 27.066406 -57.929688 10.398438 -35.648438 10.398438 -18.15625 C 10.398438 -5.777344 17.988281 1.320312 28.386719 1.320312 Z M 28.386719 1.320312 "/></g></g></g><g fill="#edece7" fill-opacity="1"><g transform="translate(642.703825, 202.165782)"><g><path d="M 10.726562 1.320312 C 16.175781 1.320312 25.746094 -4.621094 37.796875 -15.515625 L 36.476562 -17.164062 C 29.707031 -10.894531 25.582031 -9.40625 22.28125 -9.40625 C 19.144531 -9.40625 17.328125 -11.058594 17.328125 -14.523438 C 17.328125 -26.242188 47.367188 -60.570312 47.367188 -75.261719 C 47.367188 -79.054688 45.222656 -83.84375 39.117188 -83.84375 C 33.339844 -83.84375 23.4375 -77.902344 11.386719 -67.007812 L 12.707031 -65.355469 C 20.136719 -72.125 25.582031 -74.929688 28.882812 -74.929688 C 31.851562 -74.929688 33.007812 -73.28125 33.007812 -70.804688 C 33.007812 -61.394531 1.652344 -24.425781 1.652344 -8.582031 C 1.652344 -4.292969 4.125 1.320312 10.726562 1.320312 Z M 44.890625 -95.394531 L 45.882812 -94.074219 L 77.242188 -118.5 C 80.046875 -120.648438 80.707031 -121.472656 80.707031 -124.277344 C 80.707031 -125.433594 80.375 -126.421875 79.550781 -126.421875 C 78.5625 -126.421875 77.074219 -124.9375 74.765625 -122.792969 Z M 44.890625 -95.394531 "/></g></g></g><g fill="#edece7" fill-opacity="1"><g transform="translate(690.730093, 202.165782)"><g><path d="M -0.660156 0 L 7.261719 0 C 8.582031 0 9.40625 -0.496094 10.234375 -1.816406 C 13.203125 -6.273438 21.289062 -20.628906 28.882812 -35.484375 C 38.289062 -52.484375 49.183594 -67.339844 58.425781 -73.28125 C 67.832031 -70.472656 73.941406 -69.484375 79.222656 -69.484375 C 85.328125 -69.484375 91.105469 -76.414062 91.105469 -80.375 C 91.105469 -83.015625 85.328125 -83.84375 81.367188 -83.84375 C 62.882812 -83.84375 49.183594 -70.640625 37.796875 -53.640625 C 42.085938 -63.210938 45.058594 -71.300781 45.058594 -75.261719 C 45.058594 -79.054688 42.910156 -83.84375 36.640625 -83.84375 C 31.027344 -83.84375 21.125 -77.902344 9.078125 -67.007812 L 10.398438 -65.355469 C 17.824219 -72.125 23.105469 -74.929688 26.570312 -74.929688 C 29.378906 -74.929688 30.863281 -73.28125 30.863281 -70.640625 C 30.863281 -61.5625 8.253906 -20.960938 -2.144531 -3.136719 C -3.136719 -1.320312 -2.476562 0 -0.660156 0 Z M -0.660156 0 "/></g></g></g><g fill="#edece7" fill-opacity="1"><g transform="translate(260.015407, 320.167251)"><g><path d="M 10.796875 -24.527344 C 10.664062 -24.664062 10.53125 -24.664062 10.398438 -24.664062 L 6.664062 -24.664062 C 6.398438 -24.664062 6.132812 -24.394531 6.132812 -24.128906 C 6.132812 -13.597656 14.128906 -4.398438 26.527344 -0.398438 C 30.527344 0.933594 34.925781 1.601562 39.328125 1.601562 C 39.726562 1.601562 40.125 1.601562 40.660156 1.601562 C 40.792969 1.601562 40.792969 1.601562 40.925781 1.601562 C 41.460938 1.601562 41.992188 1.601562 42.390625 1.464844 C 59.589844 0.265625 72.519531 -10.664062 72.519531 -24.128906 C 72.519531 -32.128906 67.453125 -39.859375 59.054688 -44.660156 L 21.460938 -66.523438 C 13.996094 -70.789062 9.730469 -77.453125 9.730469 -84.519531 C 9.730469 -96.117188 21.195312 -105.847656 36.261719 -107.046875 C 36.660156 -107.046875 37.195312 -107.046875 37.726562 -107.046875 C 38.261719 -107.046875 38.792969 -107.046875 39.328125 -107.046875 C 43.59375 -107.046875 47.726562 -106.515625 51.589844 -105.179688 C 66.921875 -99.980469 68.65625 -90.117188 67.589844 -82.785156 C 67.589844 -82.652344 67.589844 -82.386719 67.722656 -82.253906 C 67.855469 -82.117188 68.121094 -82.117188 68.253906 -82.117188 L 71.855469 -82.117188 C 72.253906 -82.117188 72.519531 -82.386719 72.519531 -82.785156 C 72.519531 -93.183594 64.523438 -102.515625 51.992188 -106.515625 C 47.992188 -107.714844 43.726562 -108.378906 39.328125 -108.378906 C 38.792969 -108.378906 38.394531 -108.378906 37.992188 -108.378906 C 37.859375 -108.378906 37.726562 -108.378906 37.726562 -108.378906 C 37.726562 -108.378906 37.59375 -108.378906 37.59375 -108.378906 C 37.195312 -108.378906 36.660156 -108.378906 36.125 -108.246094 C 19.0625 -107.046875 6.132812 -96.117188 6.132812 -82.785156 C 6.132812 -74.519531 10.929688 -66.921875 19.464844 -62.121094 L 57.191406 -40.257812 C 64.523438 -35.992188 68.789062 -29.328125 68.789062 -22.261719 C 68.789062 -10.664062 57.457031 -0.933594 42.390625 0.265625 C 41.859375 0.265625 41.324219 0.265625 40.792969 0.265625 C 40.257812 0.265625 39.859375 0.265625 39.328125 0.265625 C 35.058594 0.265625 30.792969 -0.265625 26.929688 -1.601562 C 11.730469 -6.796875 9.863281 -16.664062 10.929688 -23.996094 C 11.066406 -24.128906 10.929688 -24.394531 10.796875 -24.527344 Z M 10.796875 -24.527344 "/></g></g></g><g fill="#edece7" fill-opacity="1"><g transform="translate(338.666316, 320.167251)"><g><path d="M 0.933594 -99.714844 C 1.066406 -99.582031 1.199219 -99.582031 1.199219 -99.582031 C 1.332031 -99.582031 1.464844 -99.582031 1.601562 -99.714844 C 9.597656 -105.582031 18.929688 -106.246094 41.324219 -106.246094 L 41.324219 -2.398438 C 41.324219 -1.464844 40.527344 -0.535156 39.460938 -0.535156 C 39.058594 -0.535156 38.792969 -0.265625 38.792969 0.132812 C 38.792969 0.398438 39.058594 0.667969 39.460938 0.667969 L 47.589844 0.667969 C 47.859375 0.667969 48.125 0.398438 48.125 0.132812 C 48.125 -0.265625 47.859375 -0.535156 47.589844 -0.535156 C 46.523438 -0.535156 45.59375 -1.464844 45.59375 -2.398438 L 45.59375 -106.246094 C 67.988281 -106.246094 77.320312 -105.582031 85.316406 -99.714844 C 85.453125 -99.582031 85.585938 -99.582031 85.71875 -99.582031 C 85.851562 -99.582031 85.984375 -99.582031 85.984375 -99.714844 C 86.25 -99.714844 86.382812 -99.980469 86.382812 -100.25 L 86.382812 -106.914062 C 86.382812 -107.3125 86.117188 -107.582031 85.71875 -107.582031 L 1.199219 -107.582031 C 0.933594 -107.582031 0.667969 -107.3125 0.667969 -106.914062 L 0.667969 -100.25 C 0.667969 -99.980469 0.800781 -99.714844 0.933594 -99.714844 Z M 0.933594 -99.714844 "/></g></g></g><g fill="#edece7" fill-opacity="1"><g transform="translate(425.84885, 320.167251)"><g><path d="M 8.132812 -106.246094 C 9.199219 -106.246094 10.132812 -105.449219 10.132812 -104.382812 L 10.132812 -32.527344 C 10.132812 -14.128906 24.929688 0.667969 43.324219 0.667969 C 59.589844 0.667969 73.71875 -11.464844 76.121094 -27.59375 L 76.121094 -27.726562 C 76.253906 -28.128906 76.253906 -28.527344 76.253906 -29.0625 C 76.253906 -29.195312 76.253906 -29.195312 76.386719 -29.195312 C 76.386719 -29.726562 76.386719 -30.261719 76.386719 -30.792969 C 76.519531 -31.328125 76.519531 -31.996094 76.519531 -32.527344 L 76.519531 -104.382812 C 76.519531 -105.449219 77.320312 -106.246094 78.386719 -106.246094 C 78.785156 -106.246094 79.050781 -106.515625 79.050781 -106.914062 C 79.050781 -107.3125 78.785156 -107.582031 78.386719 -107.582031 L 73.320312 -107.582031 C 72.921875 -107.582031 72.652344 -107.3125 72.652344 -106.914062 C 72.652344 -106.515625 72.921875 -106.246094 73.320312 -106.246094 C 74.386719 -106.246094 75.1875 -105.449219 75.1875 -104.382812 L 75.1875 -32.527344 C 75.1875 -31.996094 75.1875 -31.460938 75.1875 -30.792969 C 75.054688 -30.261719 75.054688 -29.863281 75.054688 -29.328125 C 75.054688 -29.328125 75.054688 -29.195312 75.054688 -29.195312 C 74.921875 -28.792969 74.921875 -28.261719 74.785156 -27.863281 C 72.519531 -13.199219 59.722656 -2.132812 44.792969 -2.132812 C 27.996094 -2.132812 14.398438 -15.730469 14.398438 -32.527344 L 14.398438 -104.382812 C 14.398438 -105.449219 15.199219 -106.246094 16.265625 -106.246094 C 16.664062 -106.246094 16.929688 -106.515625 16.929688 -106.914062 C 16.929688 -107.3125 16.664062 -107.582031 16.265625 -107.582031 L 8.132812 -107.582031 C 7.867188 -107.582031 7.597656 -107.3125 7.597656 -106.914062 C 7.597656 -106.515625 7.867188 -106.246094 8.132812 -106.246094 Z M 8.132812 -106.246094 "/></g></g></g><g fill="#edece7" fill-opacity="1"><g transform="translate(512.631467, 320.167251)"><g><path d="M 9.066406 -0.535156 C 8.796875 -0.535156 8.53125 -0.265625 8.53125 0.132812 C 8.53125 0.398438 8.796875 0.667969 9.066406 0.667969 L 44.925781 0.667969 C 74.921875 0 98.515625 -23.863281 98.515625 -53.457031 C 98.515625 -83.050781 74.921875 -106.78125 44.925781 -107.582031 L 9.066406 -107.582031 C 8.796875 -107.582031 8.53125 -107.3125 8.53125 -106.914062 C 8.53125 -106.515625 8.796875 -106.246094 9.066406 -106.246094 C 10.132812 -106.246094 11.066406 -105.449219 11.066406 -104.382812 L 11.066406 -2.398438 C 11.066406 -1.464844 10.132812 -0.535156 9.066406 -0.535156 Z M 43.457031 -106.246094 L 44.925781 -106.246094 C 72.253906 -105.449219 93.714844 -82.253906 93.714844 -53.457031 C 93.714844 -24.527344 72.253906 -1.332031 44.925781 -0.667969 L 15.332031 -0.535156 L 15.332031 -106.246094 Z M 43.457031 -106.246094 "/></g></g></g><g fill="#edece7" fill-opacity="1"><g transform="translate(616.743943, 320.167251)"><g><path d="M 17.195312 -106.246094 C 17.597656 -106.246094 17.863281 -106.515625 17.863281 -106.914062 C 17.863281 -107.3125 17.597656 -107.582031 17.195312 -107.582031 L 9.066406 -107.582031 C 8.796875 -107.582031 8.53125 -107.3125 8.53125 -106.914062 C 8.53125 -106.515625 8.796875 -106.246094 9.066406 -106.246094 C 10.132812 -106.246094 11.066406 -105.449219 11.066406 -104.382812 L 11.066406 -2.53125 C 11.066406 -1.464844 10.132812 -0.535156 9.066406 -0.535156 C 8.796875 -0.535156 8.53125 -0.265625 8.53125 0.132812 C 8.53125 0.398438 8.796875 0.667969 9.066406 0.667969 L 17.195312 0.667969 C 17.597656 0.667969 17.863281 0.398438 17.863281 0.132812 C 17.863281 -0.265625 17.597656 -0.535156 17.195312 -0.535156 C 16.128906 -0.535156 15.332031 -1.464844 15.332031 -2.53125 L 15.332031 -104.382812 C 15.332031 -105.449219 16.128906 -106.246094 17.195312 -106.246094 Z M 17.195312 -106.246094 "/></g></g></g><g fill="#edece7" fill-opacity="1"><g transform="translate(643.271951, 320.167251)"><g><path d="M 19.730469 -16.53125 L 19.996094 -16.265625 C 20.128906 -15.996094 20.394531 -15.730469 20.664062 -15.597656 C 20.664062 -15.464844 20.796875 -15.464844 20.929688 -15.332031 L 23.730469 -12.53125 C 34.128906 -3.066406 47.324219 1.601562 60.523438 1.601562 C 74.652344 1.601562 88.652344 -3.734375 99.449219 -14.53125 C 120.113281 -35.195312 121.046875 -68.519531 101.316406 -90.25 L 98.515625 -93.050781 C 98.515625 -93.183594 98.515625 -93.183594 98.382812 -93.316406 C 98.117188 -93.582031 97.847656 -93.714844 97.582031 -93.984375 L 97.449219 -94.25 C 97.316406 -94.382812 97.183594 -94.515625 97.050781 -94.515625 C 75.1875 -113.980469 42.390625 -113.179688 21.597656 -92.25 C 0.800781 -71.453125 0 -38.660156 19.328125 -16.929688 C 19.464844 -16.796875 19.597656 -16.664062 19.730469 -16.53125 Z M 96.117188 -17.863281 C 86.519531 -8.265625 74.386719 -2.800781 62.253906 -1.601562 C 48.65625 -0.265625 35.058594 -4.265625 24.527344 -13.597656 L 20.929688 -17.0625 C 20.664062 -17.464844 20.394531 -17.730469 20.128906 -17.996094 C 19.996094 -18.261719 19.730469 -18.53125 19.597656 -18.664062 C 19.328125 -19.0625 18.929688 -19.464844 18.664062 -19.863281 C 18.398438 -20.128906 18.128906 -20.53125 17.863281 -20.929688 C 17.730469 -21.195312 17.464844 -21.460938 17.332031 -21.730469 C 16.929688 -22.128906 16.664062 -22.664062 16.265625 -23.195312 C 16.265625 -23.195312 16.128906 -23.328125 16.128906 -23.460938 C 3.867188 -42.660156 6.53125 -68.789062 23.195312 -87.050781 C 23.730469 -87.71875 24.394531 -88.382812 25.0625 -88.917969 C 25.730469 -89.585938 26.394531 -90.25 27.0625 -90.917969 C 27.195312 -90.917969 27.195312 -91.050781 27.328125 -91.183594 C 37.859375 -100.648438 51.058594 -105.449219 63.988281 -105.449219 C 73.453125 -105.449219 82.785156 -102.78125 90.917969 -97.582031 C 90.917969 -97.582031 91.050781 -97.449219 91.183594 -97.316406 C 91.582031 -97.050781 91.984375 -96.78125 92.382812 -96.648438 C 92.648438 -96.382812 93.050781 -96.117188 93.316406 -95.847656 C 93.582031 -95.714844 93.851562 -95.449219 93.984375 -95.316406 C 94.515625 -94.917969 94.917969 -94.648438 95.316406 -94.25 C 95.582031 -94.117188 95.714844 -93.984375 95.847656 -93.851562 C 96.117188 -93.582031 96.515625 -93.316406 96.78125 -93.050781 L 100.382812 -89.449219 C 118.113281 -69.453125 116.246094 -37.992188 96.117188 -17.863281 Z M 96.117188 -17.863281 "/></g></g></g><g fill="#edece7" fill-opacity="1"><g transform="translate(263.990682, 351.667891)"><g><path d="M 7.316406 -11.929688 L 9.183594 -7.398438 L 6.988281 -2.027344 L 3.199219 -11.910156 C 2.601562 -13.488281 2.460938 -13.898438 3.09375 -14.082031 L 3.09375 -14.347656 L -0.0820312 -14.347656 L -0.0820312 -14.082031 C 0.367188 -13.898438 0.839844 -13.488281 1.433594 -11.910156 L 5.964844 0 L 6.539062 0 L 9.367188 -6.949219 L 12.214844 0 L 12.789062 0 L 17.074219 -11.910156 C 17.648438 -13.46875 18.140625 -13.898438 18.714844 -14.082031 L 18.714844 -14.347656 L 16.398438 -14.347656 L 16.398438 -14.082031 C 17.09375 -13.9375 17.21875 -13.242188 16.726562 -11.910156 L 13.160156 -2.070312 L 10.390625 -8.773438 L 11.539062 -11.910156 C 12.113281 -13.46875 12.605469 -13.898438 13.179688 -14.082031 L 13.179688 -14.347656 L 10.925781 -14.347656 L 10.925781 -14.082031 C 11.601562 -13.9375 11.683594 -13.261719 11.171875 -11.910156 L 10.1875 -9.246094 L 9.082031 -11.949219 C 8.445312 -13.488281 8.28125 -13.898438 8.894531 -14.082031 L 8.894531 -14.347656 L 5.761719 -14.347656 L 5.761719 -14.082031 C 6.210938 -13.898438 6.703125 -13.488281 7.316406 -11.929688 Z M 7.316406 -11.929688 "/></g></g></g><g fill="#edece7" fill-opacity="1"><g transform="translate(282.580566, 351.667891)"><g><path d="M 5.597656 0.203125 C 7.789062 0.203125 9.386719 -1.25 10.433594 -2.683594 L 10.25 -2.871094 C 9.304688 -1.804688 8.179688 -1.085938 6.601562 -1.085938 C 3.933594 -1.085938 2.191406 -3.011719 2.191406 -5.820312 C 2.191406 -6.148438 2.214844 -6.457031 2.253906 -6.765625 L 10.269531 -6.765625 C 10.207031 -8.710938 8.710938 -10.390625 6.128906 -10.390625 C 3.257812 -10.390625 0.738281 -8.15625 0.738281 -4.816406 C 0.738281 -1.433594 3.339844 0.203125 5.597656 0.203125 Z M 2.316406 -7.03125 C 2.644531 -8.753906 3.710938 -10.042969 5.453125 -10.023438 C 7.316406 -10.023438 8.425781 -8.402344 8.628906 -7.03125 Z M 2.316406 -7.03125 "/></g></g></g><g fill="#edece7" fill-opacity="1"><g transform="translate(293.58692, 351.667891)"><g><path d="M 6.003906 0.183594 C 9.429688 0.164062 11.335938 -2.542969 11.335938 -5.390625 C 11.335938 -8.28125 9.46875 -10.390625 6.867188 -10.390625 C 5.453125 -10.390625 4.121094 -9.734375 3.035156 -9 L 3.035156 -16.417969 L 2.847656 -16.5625 L 0.613281 -15.578125 L 0.613281 -15.351562 C 1.167969 -15.105469 1.433594 -14.902344 1.433594 -13.46875 L 1.433594 0 L 1.640625 0 L 2.316406 -1.332031 C 3.054688 -0.53125 4.46875 0.183594 6.003906 0.183594 Z M 3.035156 -3.464844 L 3.035156 -8.691406 C 3.875 -9.265625 4.835938 -9.714844 5.902344 -9.714844 C 8.792969 -9.714844 9.816406 -6.476562 9.816406 -4.203125 C 9.816406 -1.824219 8.792969 -0.226562 6.660156 -0.226562 C 4.777344 -0.226562 3.035156 -1.988281 3.035156 -3.464844 Z M 3.035156 -3.464844 "/></g></g></g><g fill="#edece7" fill-opacity="1"><g transform="translate(305.802536, 351.667891)"><g/></g></g><g fill="#edece7" fill-opacity="1"><g transform="translate(310.106693, 351.667891)"><g><path d="M 1.046875 0 L 6.414062 0 C 10.925781 0 13.835938 -3.117188 13.816406 -7.441406 C 13.792969 -10.761719 11.582031 -14.347656 5.945312 -14.347656 L 1.046875 -14.347656 L 1.046875 -14.082031 C 1.660156 -13.898438 1.867188 -13.425781 1.867188 -11.746094 L 1.867188 -2.601562 C 1.867188 -0.921875 1.660156 -0.449219 1.046875 -0.265625 Z M 3.546875 -1.804688 L 3.546875 -14.039062 L 4.941406 -14.039062 C 9.511719 -14.039062 11.949219 -10.71875 11.949219 -6.621094 C 11.949219 -2.335938 9.960938 -0.308594 6.375 -0.308594 L 4.878906 -0.308594 C 3.75 -0.308594 3.546875 -0.839844 3.546875 -1.804688 Z M 3.546875 -1.804688 "/></g></g></g><g fill="#edece7" fill-opacity="1"><g transform="translate(324.966295, 351.667891)"><g><path d="M 5.597656 0.203125 C 7.789062 0.203125 9.386719 -1.25 10.433594 -2.683594 L 10.25 -2.871094 C 9.304688 -1.804688 8.179688 -1.085938 6.601562 -1.085938 C 3.933594 -1.085938 2.191406 -3.011719 2.191406 -5.820312 C 2.191406 -6.148438 2.214844 -6.457031 2.253906 -6.765625 L 10.269531 -6.765625 C 10.207031 -8.710938 8.710938 -10.390625 6.128906 -10.390625 C 3.257812 -10.390625 0.738281 -8.15625 0.738281 -4.816406 C 0.738281 -1.433594 3.339844 0.203125 5.597656 0.203125 Z M 2.316406 -7.03125 C 2.644531 -8.753906 3.710938 -10.042969 5.453125 -10.023438 C 7.316406 -10.023438 8.425781 -8.402344 8.628906 -7.03125 Z M 2.316406 -7.03125 "/></g></g></g><g fill="#edece7" fill-opacity="1"><g transform="translate(335.972649, 351.667891)"><g><path d="M 4.632812 0.183594 C 7.09375 0.164062 8.382812 -1.292969 8.382812 -3.011719 C 8.382812 -5.0625 6.496094 -5.535156 4.941406 -6.046875 C 3.320312 -6.578125 2.007812 -7.113281 2.007812 -8.402344 C 2.007812 -9.449219 2.910156 -10.125 4.304688 -10.125 C 5.761719 -10.125 7.070312 -9.183594 7.726562 -7.707031 L 7.933594 -7.75 L 7.851562 -9.839844 C 7.214844 -10.105469 6.003906 -10.390625 4.671875 -10.390625 C 2.296875 -10.390625 0.941406 -9.140625 0.941406 -7.523438 C 0.941406 -5.65625 2.335938 -5.125 4.285156 -4.507812 C 5.863281 -3.996094 7.296875 -3.527344 7.296875 -2.050781 C 7.296875 -0.902344 6.355469 -0.144531 5.082031 -0.144531 C 3.21875 -0.164062 1.761719 -1.332031 0.902344 -3.28125 L 0.71875 -3.238281 L 0.902344 -0.757812 C 1.578125 -0.308594 2.992188 0.183594 4.632812 0.183594 Z M 4.632812 0.183594 "/></g></g></g><g fill="#edece7" fill-opacity="1"><g transform="translate(345.093372, 351.667891)"><g><path d="M 0.65625 0 L 3.894531 0 L 3.894531 -0.265625 C 3.28125 -0.449219 3.074219 -0.921875 3.074219 -2.601562 L 3.074219 -10.269531 L 2.910156 -10.414062 L 0.65625 -9.429688 L 0.65625 -9.203125 C 1.230469 -8.957031 1.476562 -8.753906 1.476562 -7.316406 L 1.476562 -2.601562 C 1.476562 -0.921875 1.292969 -0.449219 0.65625 -0.265625 Z M 1.023438 -12.789062 C 1.023438 -12.175781 1.515625 -11.664062 2.152344 -11.664062 C 2.789062 -11.664062 3.28125 -12.175781 3.28125 -12.789062 C 3.28125 -13.445312 2.808594 -13.9375 2.152344 -13.9375 C 1.515625 -13.9375 1.023438 -13.445312 1.023438 -12.789062 Z M 1.023438 -12.789062 "/></g></g></g><g fill="#edece7" fill-opacity="1"><g transform="translate(349.704974, 351.667891)"><g><path d="M 3.648438 5.679688 C 7.03125 5.679688 10.660156 2.972656 10.660156 0.636719 C 10.660156 -0.964844 9.449219 -1.25 7.378906 -1.375 L 4.796875 -1.539062 C 3.238281 -1.621094 2.5625 -1.945312 2.542969 -2.5 C 2.542969 -2.890625 2.828125 -3.09375 3.28125 -3.402344 C 3.914062 -3.136719 4.632812 -3.011719 5.269531 -3.011719 C 6.949219 -3.011719 9.304688 -4.507812 9.304688 -6.867188 C 9.304688 -8.628906 8.28125 -9.632812 7.03125 -10.085938 C 7.234375 -10.371094 7.460938 -10.617188 7.6875 -10.78125 C 8.609375 -10.496094 9.203125 -10.308594 9.714844 -10.308594 C 10.453125 -10.308594 10.882812 -11.007812 10.882812 -11.355469 C 10.882812 -11.664062 10.453125 -11.847656 9.816406 -11.847656 C 8.835938 -11.847656 8.097656 -11.480469 7.480469 -10.925781 C 7.214844 -10.71875 6.96875 -10.453125 6.765625 -10.1875 C 6.292969 -10.332031 5.761719 -10.390625 5.269531 -10.390625 C 3.15625 -10.390625 1.210938 -8.671875 1.210938 -6.519531 C 1.210938 -5 1.988281 -4.058594 3.011719 -3.527344 C 2.191406 -2.992188 1.515625 -2.480469 1.515625 -1.722656 C 1.515625 -0.839844 2.089844 -0.410156 3.011719 -0.183594 C 1.351562 0.820312 0.308594 1.867188 0.308594 3.15625 C 0.308594 5 2.089844 5.679688 3.648438 5.679688 Z M 1.679688 2.398438 C 1.679688 1.515625 2.132812 0.675781 3.320312 -0.121094 C 3.691406 -0.0625 4.078125 -0.0195312 4.488281 0 L 7.359375 0.144531 C 9.058594 0.246094 9.859375 0.53125 9.859375 1.496094 C 9.859375 3.117188 7.441406 4.753906 4.816406 4.753906 C 2.910156 4.753906 1.679688 3.875 1.679688 2.398438 Z M 2.707031 -7.421875 C 2.707031 -8.855469 3.320312 -10.023438 4.777344 -10.085938 C 6.640625 -10.1875 7.828125 -7.789062 7.828125 -5.945312 C 7.828125 -4.550781 7.175781 -3.339844 5.65625 -3.339844 C 3.773438 -3.339844 2.707031 -5.636719 2.707031 -7.421875 Z M 2.707031 -7.421875 "/></g></g></g><g fill="#edece7" fill-opacity="1"><g transform="translate(360.42439, 351.667891)"><g><path d="M 0.65625 0 L 3.894531 0 L 3.894531 -0.265625 C 3.28125 -0.449219 3.074219 -0.921875 3.074219 -2.601562 L 3.074219 -8.179688 C 4.121094 -9.039062 5.226562 -9.714844 6.355469 -9.714844 C 8.15625 -9.714844 9.058594 -8.546875 9.058594 -6.414062 L 9.058594 -2.601562 C 9.058594 -0.921875 8.875 -0.449219 8.238281 -0.265625 L 8.238281 0 L 11.480469 0 L 11.480469 -0.265625 C 10.84375 -0.449219 10.660156 -0.921875 10.660156 -2.601562 L 10.660156 -6.824219 C 10.660156 -9.222656 9.429688 -10.390625 7.421875 -10.390625 C 5.839844 -10.390625 4.261719 -9.46875 3.074219 -8.507812 L 3.074219 -10.269531 L 2.910156 -10.414062 L 0.65625 -9.429688 L 0.65625 -9.203125 C 1.230469 -8.957031 1.476562 -8.753906 1.476562 -7.316406 L 1.476562 -2.601562 C 1.476562 -0.921875 1.292969 -0.449219 0.65625 -0.265625 Z M 0.65625 0 "/></g></g></g><g fill="#edece7" fill-opacity="1"><g transform="translate(372.394062, 351.667891)"><g/></g></g><g fill="#edece7" fill-opacity="1"><g transform="translate(376.698219, 351.667891)"><g><path d="M 12.914062 0.144531 C 14.636719 0.144531 16.808594 -2.050781 16.808594 -4.367188 C 16.808594 -5.65625 16.050781 -6.824219 14.902344 -7.359375 L 17.28125 -7.359375 L 17.382812 -7.644531 L 9.980469 -7.644531 L 9.878906 -7.359375 L 14.367188 -7.359375 C 15.003906 -7.132812 15.496094 -5.226562 15.496094 -3.996094 C 15.496094 -2.398438 15.292969 -0.777344 14.328125 -0.777344 C 13.078125 -0.777344 10.125 -3.546875 7.726562 -6.332031 C 6.292969 -8.015625 4.570312 -10.1875 4.570312 -11.886719 C 4.570312 -12.871094 5.269531 -14.101562 6.96875 -14.101562 C 8.136719 -14.101562 9.492188 -13.710938 10.472656 -11.417969 L 10.660156 -11.457031 L 10.433594 -13.835938 C 9.53125 -14.347656 8.382812 -14.492188 7.585938 -14.492188 C 4.386719 -14.492188 3.199219 -12.566406 3.199219 -11.046875 C 3.199219 -10.0625 3.609375 -9.101562 4.242188 -8.054688 C 1.761719 -7.195312 0.59375 -5.597656 0.59375 -3.773438 C 0.59375 -1.640625 2.214844 0.203125 4.613281 0.203125 C 6.273438 0.203125 7.726562 -0.820312 8.710938 -2.683594 C 10.308594 -1.105469 11.949219 0.144531 12.914062 0.144531 Z M 2.027344 -4.507812 C 2.027344 -5.78125 2.5625 -7.132812 4.386719 -7.851562 C 4.941406 -6.988281 5.65625 -6.109375 6.457031 -5.164062 C 7.09375 -4.40625 7.789062 -3.609375 8.507812 -2.890625 C 7.75 -1.597656 6.496094 -0.902344 5.433594 -0.902344 C 3.28125 -0.902344 2.027344 -2.726562 2.027344 -4.507812 Z M 2.027344 -4.507812 "/></g></g></g><g fill="#edece7" fill-opacity="1"><g transform="translate(394.263295, 351.667891)"><g/></g></g><g fill="#edece7" fill-opacity="1"><g transform="translate(398.567452, 351.667891)"><g><path d="M 1.046875 0 L 6.414062 0 C 10.925781 0 13.835938 -3.117188 13.816406 -7.441406 C 13.792969 -10.761719 11.582031 -14.347656 5.945312 -14.347656 L 1.046875 -14.347656 L 1.046875 -14.082031 C 1.660156 -13.898438 1.867188 -13.425781 1.867188 -11.746094 L 1.867188 -2.601562 C 1.867188 -0.921875 1.660156 -0.449219 1.046875 -0.265625 Z M 3.546875 -1.804688 L 3.546875 -14.039062 L 4.941406 -14.039062 C 9.511719 -14.039062 11.949219 -10.71875 11.949219 -6.621094 C 11.949219 -2.335938 9.960938 -0.308594 6.375 -0.308594 L 4.878906 -0.308594 C 3.75 -0.308594 3.546875 -0.839844 3.546875 -1.804688 Z M 3.546875 -1.804688 "/></g></g></g><g fill="#edece7" fill-opacity="1"><g transform="translate(413.427054, 351.667891)"><g><path d="M 5.597656 0.203125 C 7.789062 0.203125 9.386719 -1.25 10.433594 -2.683594 L 10.25 -2.871094 C 9.304688 -1.804688 8.179688 -1.085938 6.601562 -1.085938 C 3.933594 -1.085938 2.191406 -3.011719 2.191406 -5.820312 C 2.191406 -6.148438 2.214844 -6.457031 2.253906 -6.765625 L 10.269531 -6.765625 C 10.207031 -8.710938 8.710938 -10.390625 6.128906 -10.390625 C 3.257812 -10.390625 0.738281 -8.15625 0.738281 -4.816406 C 0.738281 -1.433594 3.339844 0.203125 5.597656 0.203125 Z M 2.316406 -7.03125 C 2.644531 -8.753906 3.710938 -10.042969 5.453125 -10.023438 C 7.316406 -10.023438 8.425781 -8.402344 8.628906 -7.03125 Z M 2.316406 -7.03125 "/></g></g></g><g fill="#edece7" fill-opacity="1"><g transform="translate(424.433408, 351.667891)"><g><path d="M 1.332031 -7.851562 L 4.613281 0 L 5.472656 0 L 8.484375 -7.808594 C 9.082031 -9.386719 9.410156 -9.796875 9.980469 -9.980469 L 9.980469 -10.25 L 7.871094 -10.25 L 7.871094 -9.980469 C 8.589844 -9.839844 8.671875 -9.164062 8.15625 -7.808594 L 5.738281 -1.496094 L 3.054688 -7.851562 C 2.398438 -9.386719 2.234375 -9.796875 2.847656 -9.980469 L 2.847656 -10.25 L -0.101562 -10.25 L -0.101562 -9.980469 C 0.328125 -9.796875 0.695312 -9.386719 1.332031 -7.851562 Z M 1.332031 -7.851562 "/></g></g></g><g fill="#edece7" fill-opacity="1"><g transform="translate(434.312485, 351.667891)"><g><path d="M 5.597656 0.203125 C 7.789062 0.203125 9.386719 -1.25 10.433594 -2.683594 L 10.25 -2.871094 C 9.304688 -1.804688 8.179688 -1.085938 6.601562 -1.085938 C 3.933594 -1.085938 2.191406 -3.011719 2.191406 -5.820312 C 2.191406 -6.148438 2.214844 -6.457031 2.253906 -6.765625 L 10.269531 -6.765625 C 10.207031 -8.710938 8.710938 -10.390625 6.128906 -10.390625 C 3.257812 -10.390625 0.738281 -8.15625 0.738281 -4.816406 C 0.738281 -1.433594 3.339844 0.203125 5.597656 0.203125 Z M 2.316406 -7.03125 C 2.644531 -8.753906 3.710938 -10.042969 5.453125 -10.023438 C 7.316406 -10.023438 8.425781 -8.402344 8.628906 -7.03125 Z M 2.316406 -7.03125 "/></g></g></g><g fill="#edece7" fill-opacity="1"><g transform="translate(445.318839, 351.667891)"><g><path d="M 0.777344 0 L 4.015625 0 L 4.015625 -0.265625 C 3.382812 -0.449219 3.199219 -0.921875 3.199219 -2.601562 L 3.199219 -16.417969 L 3.011719 -16.5625 L 0.777344 -15.578125 L 0.777344 -15.351562 C 1.332031 -15.105469 1.597656 -14.902344 1.597656 -13.46875 L 1.597656 -2.601562 C 1.597656 -0.921875 1.394531 -0.449219 0.777344 -0.265625 Z M 0.777344 0 "/></g></g></g><g fill="#edece7" fill-opacity="1"><g transform="translate(450.176398, 351.667891)"><g><path d="M 6.109375 0.203125 C 8.527344 0.203125 11.457031 -1.679688 11.457031 -5.1875 C 11.457031 -8.835938 8.648438 -10.390625 6.109375 -10.390625 C 3.300781 -10.390625 0.738281 -8.179688 0.738281 -4.980469 C 0.738281 -1.414062 3.503906 0.203125 6.109375 0.203125 Z M 2.316406 -6.148438 C 2.316406 -8.199219 3.257812 -9.921875 5.351562 -10.003906 C 8.035156 -10.144531 9.898438 -6.621094 9.898438 -3.976562 C 9.898438 -1.988281 8.917969 -0.226562 6.722656 -0.226562 C 3.996094 -0.226562 2.316406 -3.546875 2.316406 -6.148438 Z M 2.316406 -6.148438 "/></g></g></g><g fill="#edece7" fill-opacity="1"><g transform="translate(462.514981, 351.667891)"><g><path d="M 6.210938 0.183594 C 9.613281 0.164062 11.5 -2.519531 11.5 -5.390625 C 11.5 -8.425781 9.714844 -10.390625 7.339844 -10.390625 C 5.761719 -10.390625 4.34375 -9.59375 3.238281 -8.773438 L 3.238281 -10.269531 L 3.054688 -10.414062 L 0.820312 -9.429688 L 0.820312 -9.203125 C 1.375 -8.957031 1.640625 -8.753906 1.640625 -7.316406 L 1.640625 2.929688 C 1.640625 4.613281 1.433594 5.082031 0.820312 5.269531 L 0.820312 5.535156 L 4.058594 5.535156 L 4.058594 5.269531 C 3.421875 5.082031 3.238281 4.613281 3.238281 2.929688 L 3.238281 -0.71875 C 4.015625 -0.203125 5.082031 0.183594 6.210938 0.183594 Z M 3.238281 -3.382812 L 3.238281 -8.445312 C 4.097656 -9.101562 5.0625 -9.695312 6.25 -9.695312 C 9.121094 -9.695312 10.023438 -6.476562 10.023438 -4.203125 C 10.023438 -1.824219 9.019531 -0.203125 6.867188 -0.203125 C 5.023438 -0.203125 3.238281 -1.988281 3.238281 -3.382812 Z M 3.238281 -3.382812 "/></g></g></g><g fill="#edece7" fill-opacity="1"><g transform="translate(474.894557, 351.667891)"><g><path d="M 0.65625 0 L 3.894531 0 L 3.894531 -0.265625 C 3.257812 -0.449219 3.074219 -0.921875 3.074219 -2.601562 L 3.074219 -8.238281 C 4.179688 -9.082031 5.246094 -9.714844 6.414062 -9.714844 C 7.992188 -9.714844 8.753906 -8.648438 8.753906 -6.621094 L 8.753906 -2.601562 C 8.753906 -0.921875 8.546875 -0.449219 7.933594 -0.265625 L 7.933594 0 L 11.171875 0 L 11.171875 -0.265625 C 10.535156 -0.449219 10.351562 -0.921875 10.351562 -2.601562 L 10.351562 -6.988281 C 10.351562 -7.441406 10.308594 -7.851562 10.226562 -8.199219 C 11.355469 -9.082031 12.421875 -9.714844 13.589844 -9.714844 C 15.1875 -9.714844 15.925781 -8.648438 15.925781 -6.621094 L 15.925781 -2.601562 C 15.925781 -0.921875 15.742188 -0.449219 15.105469 -0.265625 L 15.105469 0 L 18.34375 0 L 18.34375 -0.265625 C 17.730469 -0.449219 17.523438 -0.921875 17.523438 -2.601562 L 17.523438 -6.988281 C 17.523438 -9.304688 16.5 -10.390625 14.511719 -10.390625 C 12.976562 -10.390625 11.398438 -9.449219 10.167969 -8.464844 C 9.796875 -9.777344 8.835938 -10.390625 7.316406 -10.390625 C 5.839844 -10.390625 4.304688 -9.511719 3.074219 -8.527344 L 3.074219 -10.269531 L 2.890625 -10.414062 L 0.65625 -9.429688 L 0.65625 -9.203125 C 1.210938 -8.957031 1.476562 -8.753906 1.476562 -7.316406 L 1.476562 -2.601562 C 1.476562 -0.921875 1.292969 -0.449219 0.65625 -0.265625 Z M 0.65625 0 "/></g></g></g><g fill="#edece7" fill-opacity="1"><g transform="translate(493.668908, 351.667891)"><g><path d="M 5.597656 0.203125 C 7.789062 0.203125 9.386719 -1.25 10.433594 -2.683594 L 10.25 -2.871094 C 9.304688 -1.804688 8.179688 -1.085938 6.601562 -1.085938 C 3.933594 -1.085938 2.191406 -3.011719 2.191406 -5.820312 C 2.191406 -6.148438 2.214844 -6.457031 2.253906 -6.765625 L 10.269531 -6.765625 C 10.207031 -8.710938 8.710938 -10.390625 6.128906 -10.390625 C 3.257812 -10.390625 0.738281 -8.15625 0.738281 -4.816406 C 0.738281 -1.433594 3.339844 0.203125 5.597656 0.203125 Z M 2.316406 -7.03125 C 2.644531 -8.753906 3.710938 -10.042969 5.453125 -10.023438 C 7.316406 -10.023438 8.425781 -8.402344 8.628906 -7.03125 Z M 2.316406 -7.03125 "/></g></g></g><g fill="#edece7" fill-opacity="1"><g transform="translate(504.675262, 351.667891)"><g><path d="M 0.65625 0 L 3.894531 0 L 3.894531 -0.265625 C 3.28125 -0.449219 3.074219 -0.921875 3.074219 -2.601562 L 3.074219 -8.179688 C 4.121094 -9.039062 5.226562 -9.714844 6.355469 -9.714844 C 8.15625 -9.714844 9.058594 -8.546875 9.058594 -6.414062 L 9.058594 -2.601562 C 9.058594 -0.921875 8.875 -0.449219 8.238281 -0.265625 L 8.238281 0 L 11.480469 0 L 11.480469 -0.265625 C 10.84375 -0.449219 10.660156 -0.921875 10.660156 -2.601562 L 10.660156 -6.824219 C 10.660156 -9.222656 9.429688 -10.390625 7.421875 -10.390625 C 5.839844 -10.390625 4.261719 -9.46875 3.074219 -8.507812 L 3.074219 -10.269531 L 2.910156 -10.414062 L 0.65625 -9.429688 L 0.65625 -9.203125 C 1.230469 -8.957031 1.476562 -8.753906 1.476562 -7.316406 L 1.476562 -2.601562 C 1.476562 -0.921875 1.292969 -0.449219 0.65625 -0.265625 Z M 0.65625 0 "/></g></g></g><g fill="#edece7" fill-opacity="1"><g transform="translate(516.644934, 351.667891)"><g><path d="M 3.875 0.203125 C 5.082031 0.203125 6.128906 -0.675781 7.011719 -1.679688 L 6.824219 -1.867188 C 6.148438 -1.066406 5.433594 -0.800781 4.859375 -0.800781 C 3.976562 -0.800781 3.402344 -1.332031 3.402344 -2.726562 L 3.402344 -9.960938 L 6.414062 -9.960938 L 6.519531 -10.25 L 3.402344 -10.25 L 3.402344 -12.769531 L 3.117188 -12.769531 L 0.492188 -10.25 L 0.492188 -9.960938 L 1.804688 -9.960938 L 1.804688 -2.726562 C 1.804688 -0.59375 2.582031 0.203125 3.875 0.203125 Z M 3.875 0.203125 "/></g></g></g></svg>